<svg width="25" height="25" viewBox="0 0 25 25" fill="none" xmlns="http://www.w3.org/2000/svg">
<path d="M5.33334 19.684L11.2173 19.664L24.06 6.94403C24.564 6.44003 24.8413 5.7707 24.8413 5.0587C24.8413 4.3467 24.564 3.67737 24.06 3.17337L21.9453 1.0587C20.9373 0.0506993 19.1787 0.0560326 18.1787 1.0547L5.33334 13.7774V19.684ZM20.06 2.94403L22.1787 5.0547L20.0493 7.16403L17.9347 5.0507L20.06 2.94403ZM8.00001 14.8894L16.04 6.92537L18.1547 9.04003L10.116 17.0014L8.00001 17.008V14.8894Z" fill="white"/>
<path d="M2.66667 25H21.3333C22.804 25 24 23.804 24 22.3333V10.776L21.3333 13.4427V22.3333H6.87733C6.84267 22.3333 6.80667 22.3467 6.772 22.3467C6.728 22.3467 6.684 22.3347 6.63867 22.3333H2.66667V3.66667H11.796L14.4627 1H2.66667C1.196 1 0 2.196 0 3.66667V22.3333C0 23.804 1.196 25 2.66667 25Z" fill="white"/>
</svg>
